<svg width="253" height="87" viewBox="0 0 253 87" fill="none" xmlns="http://www.w3.org/2000/svg">
<path d="M3.29597 76.7007C2.48593 76.7007 1.82926 77.3574 1.82926 78.1675V78.2414C1.82926 79.0514 2.48593 79.7081 3.29597 79.7081V79.7081C4.10601 79.7081 4.76268 79.0514 4.76268 78.2414V78.1675C4.76268 77.3574 4.10601 76.7007 3.29597 76.7007V76.7007ZM3.29597 75.8911C4.10601 75.8911 4.76268 75.2344 4.76268 74.4244V74.3174C4.76268 73.5073 4.10601 72.8507 3.29597 72.8507V72.8507C2.48593 72.8507 1.82926 73.5073 1.82926 74.3174V74.4244C1.82926 75.2344 2.48593 75.8911 3.29597 75.8911V75.8911ZM3.26184 80.5508C2.45345 80.5508 1.79697 81.1921 1.71944 81.9968C1.58065 83.4372 1.31193 84.6887 0.918152 85.7563C0.814573 86.0371 0.462763 86.115 0.238445 85.9169V85.9169C0.0960366 85.7911 0.0509512 85.5887 0.119514 85.4115C0.701022 83.9085 1.0063 82.055 1.02175 79.8238V74.2987C1.02175 73.0335 2.04733 72.008 3.31245 72.008V72.008C4.57757 72.008 5.60315 73.0335 5.60315 74.2987V84.8966C5.60315 85.7889 5.17468 86.2516 4.31773 86.2516H3.29591C3.1209 86.2516 2.96764 86.1342 2.922 85.9653V85.9653C2.854 85.7135 3.04918 85.4684 3.3098 85.4769C3.56882 85.4854 3.81446 85.4915 4.05405 85.4915C4.51548 85.4915 4.76268 85.194 4.76268 84.5992V82.0517C4.76268 81.2228 4.09073 80.5508 3.26184 80.5508V80.5508ZM8.3126 78.915C8.14504 78.915 8.00921 79.0508 8.00921 79.2184V85.8809C8.00921 86.113 7.82106 86.3011 7.58897 86.3011V86.3011C7.35688 86.3011 7.16873 86.113 7.16873 85.8809V75.2545C7.16873 73.4615 8.62226 72.008 10.4153 72.008V72.008C12.2083 72.008 13.7605 73.4742 13.5027 75.2486C13.4639 75.5154 13.4181 75.7352 13.3652 75.9076C13.1839 76.5686 12.5741 76.899 11.5194 76.899H10.5344C10.3653 76.899 10.2156 76.7896 10.1644 76.6285V76.6285C10.0846 76.3781 10.2716 76.1224 10.5344 76.1224H11.1074C11.5359 76.1224 11.849 76.0894 12.0633 76.0233C12.261 75.9572 12.4258 75.7919 12.5412 75.5276C12.5669 75.4436 12.5908 75.3419 12.6127 75.2224C12.8501 73.9256 11.6946 72.8342 10.3762 72.8342V72.8342C9.06896 72.8342 8.00921 73.8939 8.00921 75.2012V75.4697C8.00921 76.9253 9.18919 78.1053 10.6448 78.1053H12.9683C13.3513 78.1053 13.6618 78.4158 13.6618 78.7988V78.7988C13.6618 78.8431 13.6576 78.8874 13.649 78.9309C13.4247 80.0641 13.1067 81.0832 12.6905 81.9881C12.3041 82.8284 12.3784 83.8612 13.1142 84.4217C13.509 84.7224 13.9304 85.0071 14.376 85.2745C14.5799 85.3969 14.6525 85.6597 14.5338 85.8657V85.8657C14.4162 86.0698 14.1551 86.1407 13.9536 86.0186C13.569 85.7855 13.2061 85.5445 12.8658 85.2957C12.0449 84.6954 10.8622 84.7597 10.0641 85.3899C9.75757 85.6318 9.43405 85.8539 9.09351 86.0569C8.9023 86.1708 8.65737 86.1077 8.53613 85.921V85.921C8.40228 85.7149 8.47018 85.4394 8.67839 85.3088C9.08331 85.0548 9.46363 84.7762 9.81684 84.4704C10.4553 83.9176 10.4178 82.9684 9.9615 82.2577C9.34838 81.3029 8.89804 80.2665 8.61047 79.1485C8.57538 79.0121 8.45346 78.915 8.3126 78.915V78.915ZM11.1251 78.915C10.2138 78.915 9.54567 79.7798 9.93401 80.6042C9.99122 80.7257 10.051 80.8459 10.1134 80.9648C10.6135 81.9183 11.9069 81.8301 12.2924 80.8247C12.3237 80.7431 12.3542 80.6607 12.3839 80.5777C12.6837 79.7401 12.0147 78.915 11.1251 78.915V78.915ZM38.6861 71.4809C38.7731 71.2972 38.9673 71.1858 39.1684 71.2151V71.2151C39.455 71.2569 39.6254 71.5572 39.4972 71.8168C39.4861 71.8393 39.4749 71.8618 39.4636 71.8842C39.2865 72.2356 39.5303 72.6689 39.9238 72.6689H45.7941C46.0872 72.6689 46.3248 72.9066 46.3248 73.1997V73.1997C46.3248 73.3263 46.2799 73.4491 46.1961 73.5441C45.9609 73.8104 45.7149 74.0674 45.4581 74.3152C44.2887 75.4433 44.4345 77.512 46.0194 77.8701C46.6978 78.0234 47.3987 78.1485 48.1215 78.2455C48.4199 78.2856 48.598 78.6032 48.4701 78.8758V78.8758C48.3897 79.0471 48.2083 79.1481 48.0206 79.1234C46.6035 78.9374 45.2734 78.6445 44.0277 78.2446C42.2526 77.6748 40.3232 77.6269 38.5427 78.1797C37.2842 78.5705 35.9251 78.8859 34.4604 79.1287C34.2736 79.1596 34.0888 79.0642 34.0043 78.8947V78.8947C33.8717 78.6288 34.0396 78.3111 34.3333 78.2654C35.6708 78.0576 36.9167 77.782 38.0708 77.4386C39.0417 77.1497 39.1529 75.8693 38.3564 75.2434V75.2434C37.8541 74.8487 37.1375 74.8561 36.6323 75.247C36.308 75.4979 35.964 75.7395 35.6003 75.9687C35.4117 76.0875 35.165 76.0389 35.0295 75.8619V75.8619C34.8674 75.65 34.9299 75.3442 35.1567 75.2035C36.8258 74.1681 38.0023 72.9237 38.6861 71.4809ZM40.607 75.7753C41.0445 76.0347 41.622 76.0194 42.0627 75.7654V75.7654C43.2695 75.0698 42.6521 73.5116 41.2592 73.5116H38.587C38.4774 73.5116 38.3708 73.5611 38.2994 73.6443V73.6443C38.1724 73.7921 38.1939 74.0089 38.3405 74.1374C39.0434 74.753 39.797 75.295 40.607 75.7753ZM40.4148 78.8889C40.4261 78.6479 40.6206 78.4523 40.8618 78.4523V78.4523C41.103 78.4523 41.2994 78.6479 41.2904 78.8889C41.2843 79.0532 41.2747 79.2142 41.2619 79.3724C41.2156 79.9459 41.6476 80.4682 42.223 80.4682H44.3001C45.7771 80.4682 47.006 81.68 46.8466 83.1484C46.723 84.2864 46.5173 85.0204 46.226 85.3428C45.748 85.8715 44.9076 86.1524 43.721 86.1524C43.2965 86.1524 42.787 86.1402 42.2029 86.1159C42.027 86.1085 41.8763 85.9884 41.8289 85.8189V85.8189C41.7543 85.5516 41.9627 85.2897 42.24 85.3023C42.7344 85.3249 43.16 85.3428 43.5233 85.3428C44.6109 85.3262 45.3031 85.1114 45.5833 84.6818C45.6429 84.5869 45.6973 84.4605 45.7466 84.3029C46.2445 82.7118 44.7097 81.2779 43.0425 81.2779H42.3943C41.5137 81.2779 40.7721 81.864 40.3427 82.6328V82.6328C39.4958 84.0748 37.6573 85.2682 34.8123 86.213C34.6491 86.2672 34.4697 86.2148 34.3594 86.0828V86.0828C34.1649 85.8498 34.2724 85.4933 34.5607 85.3982C36.9267 84.6183 38.5355 83.6426 39.3868 82.4841V82.4841C39.7218 81.9323 39.2703 81.2779 38.6247 81.2779H35.2762C35.0526 81.2779 34.8714 81.0966 34.8714 80.873V80.873C34.8714 80.6495 35.0526 80.4682 35.2762 80.4682H39.3008C39.8311 80.4682 40.296 80.0972 40.3583 79.5706C40.3847 79.3478 40.4039 79.1203 40.4148 78.8889ZM74.8679 71.6928C74.8679 71.4471 75.0671 71.2479 75.3129 71.2479V71.2479C75.5586 71.2479 75.7579 71.4471 75.7579 71.6928V73.9991C75.7579 75.5186 76.9896 76.7503 78.5091 76.7503H82.1179C82.3643 76.7503 82.564 76.9501 82.564 77.1965V77.1965C82.564 77.4429 82.3643 77.6426 82.1179 77.6426H79.1609C77.2815 77.6426 75.7579 79.1662 75.7579 81.0457V85.8396C75.7579 86.0854 75.5586 86.2846 75.3129 86.2846V86.2846C75.0671 86.2846 74.8679 86.0854 74.8679 85.8396V81.0704C74.8679 79.1773 73.3333 77.6426 71.4401 77.6426H68.4585C68.2121 77.6426 68.0123 77.4429 68.0123 77.1965V77.1965C68.0123 76.9501 68.2121 76.7503 68.4585 76.7503H72.1167C73.6362 76.7503 74.8679 75.5186 74.8679 73.9991V71.6928ZM102.126 72.8755C102.126 72.6336 102.322 72.4376 102.563 72.4376H116.025C116.267 72.4376 116.463 72.6336 116.463 72.8755V72.8755C116.463 73.1173 116.267 73.3133 116.025 73.3133H108.621C108.237 73.3133 107.927 73.6241 107.927 74.0073V74.0073V74.0073C107.902 75.672 109.193 77.1138 110.858 77.1138H111.448C113.304 77.1138 114.817 78.6272 114.741 80.4808C114.647 82.7681 114.467 84.2106 114.189 84.814C113.793 85.6402 113.118 86.0698 112.145 86.0698C111.628 86.0698 111.023 86.0572 110.33 86.0431C110.146 86.0393 109.985 85.9156 109.933 85.7378V85.7378C109.854 85.4617 110.068 85.1886 110.355 85.198C110.973 85.2182 111.501 85.2309 111.931 85.2436C112.772 85.2106 113.299 84.814 113.513 84.0374C113.639 83.5796 113.737 82.6913 113.806 81.3691C113.904 79.5037 112.379 77.9731 110.511 77.9731V77.9731C108.855 77.9731 107.503 79.2038 107 80.7818C106.868 81.1948 106.721 81.5858 106.559 81.9554C105.774 83.6667 104.517 85.0327 102.786 86.067C102.574 86.1935 102.302 86.1239 102.169 85.9165V85.9165C102.021 85.6869 102.1 85.3809 102.333 85.2393C103.983 84.2382 105.173 82.9012 105.916 81.2283C106.641 79.3776 107.004 76.9651 107.037 74.0073V74.0073C107.037 73.6241 106.726 73.3133 106.343 73.3133H102.563C102.322 73.3133 102.126 73.1173 102.126 72.8755V72.8755ZM149.461 71.5809C149.682 71.4902 149.938 71.5774 150.05 71.7884V71.7884C150.174 72.0223 150.071 72.3127 149.824 72.4075C148.92 72.7546 147.95 73.0108 146.919 73.1688C146.045 73.3026 145.352 74.0215 145.352 74.905V74.905C145.352 75.8237 146.097 76.5686 147.016 76.5686H150.452C150.684 76.5686 150.873 76.7572 150.873 76.9899V76.9899C150.873 77.2226 150.684 77.4113 150.452 77.4113H149.958C149.453 77.4113 149.044 77.8208 149.044 78.3259V85.9305C149.044 86.1717 148.848 86.3672 148.607 86.3672V86.3672C148.366 86.3672 148.17 86.1717 148.17 85.9305V78.8203C148.17 78.0421 147.539 77.4113 146.761 77.4113V77.4113C145.983 77.4113 145.352 78.0421 145.352 78.8203V79.5924C145.277 82.1441 144.754 84.2186 143.794 85.8158C143.645 86.0631 143.304 86.0886 143.105 85.8792V85.8792C142.955 85.7211 142.94 85.48 143.056 85.2955C143.943 83.8855 144.418 81.9889 144.479 79.5924V75.4079C144.479 73.8383 145.743 72.5927 147.277 72.259C148.037 72.0936 148.764 71.8672 149.461 71.5809ZM136.124 73.1646C136.124 72.9274 136.316 72.735 136.553 72.735H138.551C138.97 72.735 139.252 72.3065 139.056 71.9361C139.015 71.8582 138.973 71.7815 138.93 71.7061C138.783 71.4458 138.927 71.1059 139.222 71.0531V71.0531C139.399 71.0215 139.576 71.1072 139.657 71.2677C139.753 71.4594 139.849 71.6623 139.943 71.8761C140.169 72.3862 140.663 72.735 141.22 72.735H143.044C143.281 72.735 143.474 72.9274 143.474 73.1646V73.1646C143.474 73.4019 143.281 73.5943 143.044 73.5943H136.553C136.316 73.5943 136.124 73.4019 136.124 73.1646V73.1646ZM135.975 76.9073C135.975 76.6746 136.164 76.4859 136.397 76.4859H136.793C137.363 76.4859 137.759 75.9163 137.511 75.4031C137.428 75.23 137.34 75.0597 137.247 74.8924C137.123 74.6694 137.216 74.3831 137.453 74.2889V74.2889C137.644 74.213 137.863 74.2912 137.956 74.4748C138.112 74.7848 138.263 75.1177 138.406 75.4735C138.647 76.0705 139.211 76.4859 139.855 76.4859V76.4859C140.417 76.4859 140.937 76.1729 141.163 75.6586C141.327 75.2866 141.48 74.9033 141.621 74.5087C141.7 74.2884 141.94 74.1694 142.162 74.2463V74.2463C142.384 74.3237 142.5 74.5693 142.411 74.7876C142.333 74.9813 142.252 75.1688 142.169 75.3502C141.934 75.8646 142.294 76.4859 142.859 76.4859H143.168C143.4 76.4859 143.589 76.6746 143.589 76.9073V76.9073C143.589 77.14 143.4 77.3287 143.168 77.3287H141.367C140.783 77.3287 140.309 77.8021 140.309 78.3862V78.3862C140.309 78.9702 140.783 79.4437 141.367 79.4437H142.879C143.107 79.4437 143.292 79.6287 143.292 79.8568V79.8568C143.292 80.085 143.107 80.2699 142.879 80.2699H141.801C140.977 80.2699 140.309 80.9376 140.309 81.7613V85.1279C140.309 85.9541 139.881 86.3672 139.024 86.3672H138.427C138.246 86.3672 138.088 86.2426 138.047 86.0663V86.0663C137.985 85.8028 138.203 85.5634 138.473 85.5815C138.558 85.5872 138.643 85.5906 138.727 85.5906C139.189 85.5906 139.419 85.3593 139.419 84.9297V81.8767C139.419 80.9893 138.7 80.2699 137.813 80.2699H136.619C136.391 80.2699 136.206 80.085 136.206 79.8568V79.8568C136.206 79.6287 136.391 79.4437 136.619 79.4437H138.362C138.946 79.4437 139.419 78.9702 139.419 78.3862V78.3862C139.419 77.8021 138.946 77.3287 138.362 77.3287H136.397C136.164 77.3287 135.975 77.14 135.975 76.9073V76.9073ZM137.403 81.676C137.465 81.4627 137.678 81.3285 137.896 81.3722V81.3722C138.132 81.4196 138.28 81.6567 138.213 81.8883C137.821 83.2347 137.298 84.4273 136.653 85.4751C136.527 85.6787 136.259 85.7341 136.058 85.6043V85.6043C135.85 85.4703 135.796 85.1916 135.928 84.9833C136.561 83.9897 137.053 82.8873 137.403 81.676ZM141.606 81.2413C141.782 81.1952 141.966 81.2789 142.046 81.4427C142.456 82.2847 142.794 83.0753 143.053 83.8065C143.125 84.0095 143.02 84.231 142.82 84.3096V84.3096C142.602 84.395 142.358 84.2796 142.281 84.0589C142.013 83.2889 141.701 82.5288 141.353 81.7852C141.25 81.5648 141.37 81.3029 141.606 81.2413V81.2413ZM170.68 71.6984C170.825 71.5615 171.046 71.546 171.206 71.664C171.987 72.2397 172.669 72.8155 173.252 73.3912C173.42 73.5569 173.416 73.8265 173.25 73.9935V73.9935C173.073 74.1711 172.783 74.162 172.608 73.9817C172.095 73.451 171.463 72.9032 170.719 72.3382C170.512 72.1815 170.492 71.8766 170.68 71.6984V71.6984ZM170.272 75.709C170.422 75.5668 170.654 75.5556 170.815 75.6853C171.623 76.3363 172.318 76.9789 172.899 77.6293C173.046 77.7942 173.037 78.0441 172.883 78.2027V78.2027C172.702 78.3882 172.401 78.3744 172.23 78.1806C171.709 77.5907 171.064 76.9758 170.297 76.3422C170.102 76.1806 170.088 75.8836 170.272 75.709V75.709ZM172.287 80.3891C172.365 80.1642 172.615 80.0498 172.835 80.1409V80.1409C173.034 80.223 173.135 80.4441 173.067 80.6477C172.459 82.4731 171.798 84.1873 171.065 85.8122C170.963 86.0392 170.697 86.1413 170.468 86.044V86.044C170.226 85.9411 170.118 85.6564 170.231 85.418C171.005 83.7746 171.694 82.1052 172.287 80.3891ZM174.686 75.5237C174.686 74.7319 175.328 74.09 176.12 74.09H176.843C177.236 74.09 177.554 73.7719 177.554 73.3794V73.3794C177.554 72.987 177.236 72.6689 176.843 72.6689H174.383C174.168 72.6689 173.994 72.4951 173.994 72.2806V72.2806C173.994 72.0661 174.168 71.8923 174.383 71.8923H184.252C184.466 71.8923 184.64 72.0661 184.64 72.2806V72.2806C184.64 72.4951 184.466 72.6689 184.252 72.6689H181.939C181.547 72.6689 181.229 72.987 181.229 73.3794V73.3794C181.229 73.7719 181.547 74.09 181.939 74.09H182.63C183.403 74.09 184.03 74.7171 184.03 75.4908V75.9406C184.03 76.9627 183.202 77.7913 182.18 77.7913H176.537C175.515 77.7913 174.686 76.9627 174.686 75.9407V75.5237ZM180.388 73.3794C180.388 72.987 180.07 72.6689 179.678 72.6689H179.105C178.712 72.6689 178.394 72.987 178.394 73.3794V73.3794C178.394 73.7719 178.712 74.09 179.105 74.09H179.678C180.07 74.09 180.388 73.7719 180.388 73.3794V73.3794ZM182.16 77.0312C182.72 77.0312 183.173 76.5775 183.173 76.0177V75.8471C183.173 75.2873 182.72 74.8336 182.16 74.8336V74.8336C181.6 74.8336 181.146 75.2873 181.146 75.8471V76.0177C181.146 76.5775 181.6 77.0312 182.16 77.0312V77.0312ZM179.391 77.0312C179.942 77.0312 180.388 76.5848 180.388 76.0342V75.8306C180.388 75.2799 179.942 74.8336 179.391 74.8336V74.8336C178.841 74.8336 178.394 75.2799 178.394 75.8306V76.0342C178.394 76.5848 178.841 77.0312 179.391 77.0312V77.0312ZM176.582 77.0312C177.164 77.0312 177.636 76.559 177.636 75.9765V75.8883C177.636 75.3058 177.164 74.8336 176.582 74.8336V74.8336C175.999 74.8336 175.527 75.3058 175.527 75.8883V75.9765C175.527 76.559 175.999 77.0312 176.582 77.0312V77.0312ZM176.087 83.2443C176.245 83.0825 176.503 83.0685 176.672 83.2194V83.2194C176.841 83.3703 176.857 83.6297 176.701 83.794C175.96 84.5765 175.089 85.273 174.098 85.8925C173.918 86.0054 173.682 85.9604 173.551 85.7924V85.7924C173.393 85.5898 173.452 85.2949 173.67 85.1598C174.595 84.5874 175.401 83.9463 176.087 83.2443ZM181.479 83.1359C181.611 83.0067 181.817 82.9889 181.968 83.0956C182.967 83.7997 183.824 84.5132 184.548 85.2182C184.71 85.3769 184.709 85.6375 184.548 85.7986V85.7986C184.382 85.965 184.112 85.9604 183.946 85.794C183.293 85.1392 182.482 84.4469 181.521 83.7326C181.327 83.5885 181.305 83.3044 181.479 83.1359V83.1359ZM178.576 86.2185H177.361C177.166 86.2185 176.998 86.0822 176.958 85.8916V85.8916C176.901 85.6244 177.116 85.3783 177.388 85.3946C177.685 85.4124 177.974 85.4254 178.262 85.4254C178.724 85.4254 178.955 85.2106 178.955 84.814V84.6338C178.955 83.2458 177.829 82.1206 176.441 82.1206H174.325C174.106 82.1206 173.928 81.943 173.928 81.724V81.724C173.928 81.505 174.106 81.3274 174.325 81.3274H184.474C184.693 81.3274 184.871 81.505 184.871 81.724V81.724C184.871 81.943 184.693 82.1206 184.474 82.1206H182.358C180.97 82.1206 179.845 83.2458 179.845 84.6338V85.0288C179.845 85.8219 179.416 86.2185 178.576 86.2185ZM175.329 79.4933C175.329 79.2743 175.507 79.0967 175.726 79.0967H183.074C183.293 79.0967 183.47 79.2743 183.47 79.4933V79.4933C183.47 79.7123 183.293 79.8899 183.074 79.8899H175.726C175.507 79.8899 175.329 79.7123 175.329 79.4933V79.4933ZM204.927 72.7185C204.927 72.5086 205.097 72.3384 205.307 72.3384H210.355C210.679 72.3384 210.942 72.0758 210.942 71.7518V71.6102C210.942 71.3645 211.141 71.1652 211.387 71.1652V71.1652C211.633 71.1652 211.832 71.3645 211.832 71.6102V71.7518C211.832 72.0758 212.095 72.3384 212.419 72.3384H217.5C217.71 72.3384 217.88 72.5086 217.88 72.7185V72.7185C217.88 72.9284 217.71 73.0985 217.5 73.0985H212.509C212.135 73.0985 211.832 73.4019 211.832 73.776V73.776C211.832 74.1502 212.135 74.4535 212.509 74.4535H216.849C217.054 74.4535 217.221 74.62 217.221 74.8253V74.8253C217.221 75.0306 217.054 75.1971 216.849 75.1971H212.542C212.15 75.1971 211.832 75.5152 211.832 75.9076V75.9076C211.832 76.3 212.15 76.6181 212.542 76.6181H218.192C218.402 76.6181 218.572 76.7883 218.572 76.9982V76.9982C218.572 77.2081 218.402 77.3782 218.192 77.3782H204.582C204.372 77.3782 204.202 77.2081 204.202 76.9982V76.9982C204.202 76.7883 204.372 76.6181 204.582 76.6181H210.231C210.624 76.6181 210.942 76.3 210.942 75.9076V75.9076C210.942 75.5152 210.624 75.1971 210.231 75.1971H205.958C205.753 75.1971 205.586 75.0306 205.586 74.8253V74.8253C205.586 74.62 205.753 74.4535 205.958 74.4535H210.265C210.639 74.4535 210.942 74.1502 210.942 73.776V73.776C210.942 73.4019 210.639 73.0985 210.265 73.0985H205.307C205.097 73.0985 204.927 72.9284 204.927 72.7185V72.7185ZM215.078 86.202H213.566C213.388 86.202 213.232 86.0842 213.183 85.9135V85.9135C213.11 85.6553 213.308 85.3999 213.577 85.4074L214.815 85.4419C215.375 85.4419 215.672 85.1445 215.672 84.5826V84.5826C215.672 84.026 215.22 83.5747 214.664 83.5747H208.507C207.758 83.5747 207.152 84.1813 207.152 84.9297V85.8479C207.152 86.0891 206.956 86.2846 206.715 86.2846V86.2846C206.474 86.2846 206.278 86.0891 206.278 85.8479V82.4263C206.278 80.2954 208.006 78.568 210.137 78.568H211.412C214.247 78.568 216.545 80.8663 216.545 83.7014V84.7644C216.545 85.7228 216.051 86.202 215.078 86.202ZM207.152 82.1536C207.152 82.5369 207.462 82.8476 207.846 82.8476H214.978C215.361 82.8476 215.672 82.5369 215.672 82.1536V82.1536C215.672 81.7704 215.361 81.4596 214.978 81.4596H207.846C207.462 81.4596 207.152 81.7704 207.152 82.1536V82.1536ZM207.152 80.0386C207.152 80.431 207.47 80.7491 207.862 80.7491H214.961C215.354 80.7491 215.672 80.431 215.672 80.0386V80.0386C215.672 79.6462 215.354 79.3281 214.961 79.3281H207.862C207.47 79.3281 207.152 79.6462 207.152 80.0386V80.0386ZM242.717 74.0404C241.799 74.0404 240.973 74.5506 240.41 75.2756C239.995 75.811 239.531 76.2959 239.015 76.7327C238.813 76.9035 238.512 76.8664 238.347 76.6603V76.6603C238.176 76.4471 238.215 76.1356 238.425 75.9594C239.807 74.7939 240.778 73.3092 241.346 71.4846C241.416 71.2585 241.642 71.1152 241.875 71.1577V71.1577C242.14 71.206 242.306 71.4725 242.223 71.729C242.188 71.8409 242.151 71.9513 242.113 72.0601C241.929 72.588 242.306 73.1646 242.865 73.1646H251.654C251.896 73.1646 252.092 73.3607 252.092 73.6025V73.6025C252.092 73.8444 251.896 74.0404 251.654 74.0404H248.281C247.464 74.0404 246.802 74.7025 246.802 75.5193V75.5193C246.802 76.3361 247.464 76.9982 248.281 76.9982H251.094C251.327 76.9982 251.515 77.1868 251.515 77.4195V77.4195C251.515 77.6523 251.327 77.8409 251.094 77.8409H248.727C247.664 77.8409 246.802 78.7028 246.802 79.7659V79.7659C246.802 80.8291 247.664 81.691 248.727 81.691H252.173C252.42 81.691 252.62 81.8907 252.62 82.1371V82.1371C252.62 82.3835 252.42 82.5833 252.173 82.5833H248.686C247.646 82.5833 246.802 83.4266 246.802 84.467V85.914C246.802 86.1552 246.607 86.3507 246.365 86.3507V86.3507C246.124 86.3507 245.929 86.1552 245.929 85.914V84.467C245.929 83.4266 245.085 82.5833 244.045 82.5833H238.646C238.399 82.5833 238.2 82.3835 238.2 82.1371V82.1371C238.2 81.8907 238.399 81.691 238.646 81.691H239.592C240.361 81.691 240.985 81.0675 240.985 80.2984V79.3446C240.985 78.0487 242.035 76.9982 243.331 76.9982H244.45C245.267 76.9982 245.929 76.3361 245.929 75.5193V75.5193C245.929 74.7025 245.267 74.0404 244.45 74.0404H242.717ZM241.891 79.7659C241.891 80.8291 242.753 81.691 243.816 81.691H244.004C245.067 81.691 245.929 80.8291 245.929 79.7659V79.7659C245.929 78.7028 245.067 77.8409 244.004 77.8409H243.816C242.753 77.8409 241.891 78.7028 241.891 79.7659V79.7659Z" fill="currentColor"/>
<path d="M56.8668 3.63209C56.0746 2.17732 54.3297 1.54637 52.7533 2.0555C50.4669 2.79398 48.0835 3.39083 45.5976 3.84598C39.3082 4.99747 34.138 10.0613 34.138 16.4552V32.7297C33.9174 40.8178 32.4153 47.3935 29.7138 52.4563C28.9531 53.8819 29.0824 55.6609 30.1971 56.8307V56.8307C31.6995 58.4073 34.277 58.204 35.289 56.2757C38.5833 49.9988 40.3639 42.1622 40.6311 32.7297V30.1168C40.6311 28.1995 42.1854 26.6452 44.1027 26.6452V26.6452C46.02 26.6452 47.5743 28.1995 47.5743 30.1168V56.7037C47.5743 58.5323 49.0567 60.0147 50.8853 60.0147V60.0147C52.714 60.0147 54.1963 58.5323 54.1963 56.7037V29.6023C54.1963 27.9691 55.5203 26.6452 57.1535 26.6452V26.6452C58.7866 26.6452 60.1106 25.3212 60.1106 23.6881V23.4746C60.1106 21.7235 58.6911 20.304 56.94 20.304H45.7388C42.9179 20.304 40.6311 18.0172 40.6311 15.1963V15.1963C40.6311 12.4903 42.7447 10.2733 45.4329 9.96257C48.7693 9.57687 51.9453 8.99566 54.9607 8.21907C56.956 7.70521 57.8522 5.44156 56.8668 3.63209V3.63209ZM4.87479 5.5722C3.17674 5.5722 1.80021 6.94874 1.80021 8.64678V8.64678C1.80021 10.3448 3.17675 11.7214 4.87479 11.7214H28.2342C29.9323 11.7214 31.3088 10.3448 31.3088 8.64678V8.64678C31.3088 6.94874 29.9323 5.5722 28.2342 5.5722H22.4709C20.7486 5.5722 19.217 4.50072 18.5851 2.89855C18.4822 2.63778 18.3795 2.38073 18.2765 2.1274C17.7609 0.858994 16.4226 0.155342 15.0719 0.379646L12.8896 0.742044C11.7298 0.934647 11.1188 2.21517 11.7 3.23717V3.23717C12.2896 4.27395 11.5387 5.5722 10.346 5.5722H4.87479ZM3.8565 20.112C2.36603 20.112 1.15777 21.3202 1.15777 22.8107V23.1543C1.15777 24.8345 2.51984 26.1965 4.20005 26.1965H10.7787C12.2114 26.1965 13.3728 27.3579 13.3728 28.7906V28.7906C13.3728 30.2233 12.2114 31.3847 10.7787 31.3847H5.22813C3.54793 31.3847 2.18584 32.7468 2.18584 34.427V34.427C2.18584 36.1072 3.54792 37.4693 5.22813 37.4693H7.77932C10.8685 37.4693 13.3728 39.9735 13.3728 43.0627V52.6488C13.3728 53.8664 12.6006 54.5062 11.1869 54.5062V54.5062C9.97627 54.5062 8.89469 55.4878 9.17768 56.665L9.55659 58.2411C9.83378 59.394 10.8651 60.2067 12.0509 60.2067H13.3728C17.8081 60.2067 20.0583 58.221 20.0583 54.2505V42.7411C20.0583 39.8295 22.4186 37.4693 25.3302 37.4693H27.5597C29.2399 37.4693 30.602 36.1072 30.602 34.427V34.427C30.602 32.7468 29.2399 31.3847 27.5597 31.3847H22.6524C21.2197 31.3847 20.0583 30.2233 20.0583 28.7906V28.7906C20.0583 27.3579 21.2197 26.1965 22.6524 26.1965H28.653C30.3332 26.1965 31.6953 24.8345 31.6953 23.1542V22.561C31.6953 21.2084 30.5989 20.112 29.2463 20.112V20.112C27.4692 20.112 26.2713 18.2725 26.9086 16.6137C26.9258 16.5688 26.9431 16.5238 26.9603 16.4788C27.4618 15.1668 26.7634 13.7114 25.4391 13.2432L24.988 13.0836C23.3094 12.4901 21.4891 13.4716 20.9848 15.1791C20.7496 15.9753 20.5035 16.7627 20.2464 17.5429C19.7349 19.0952 18.2652 20.112 16.6308 20.112V20.112C14.8921 20.112 13.3729 18.9573 12.8484 17.2996C12.5543 16.37 12.2581 15.4855 11.9575 14.6439C11.4213 13.1426 9.74686 12.4254 8.25618 12.9906L7.74869 13.183C6.31416 13.7269 5.6771 15.364 6.32654 16.754V16.754C7.05982 18.3233 5.88153 20.112 4.1493 20.112H3.8565ZM8.78902 40.6036C7.13126 40.2523 5.5129 41.3162 5.05842 42.9487C4.19743 46.0413 3.02726 49.0345 1.54809 51.914C0.738903 53.4892 1.19755 55.4525 2.69599 56.3963V56.3963C4.27204 57.389 6.36598 56.8631 7.16434 55.1802C8.72383 51.893 10.0263 48.2603 11.0882 44.2659C11.5274 42.6138 10.4614 40.9579 8.78902 40.6036V40.6036ZM27.5292 41.9786C27.0191 40.6115 25.549 39.8674 24.139 40.243V40.243C22.5041 40.6784 21.6046 42.4279 22.1506 44.0293C22.7582 45.8113 23.3207 47.6172 23.8316 49.4407C24.3155 51.1676 26.1712 52.1424 27.8449 51.4981V51.4981C29.2657 50.9512 30.0476 49.4175 29.5955 47.9638C29.0045 46.0635 28.3089 44.0684 27.5292 41.9786ZM72.6301 2.66425C71.4531 1.80587 69.8339 1.93769 68.7798 2.9431V2.9431C67.3841 4.27432 67.5497 6.54329 69.0736 7.72566C70.8501 9.1041 72.4198 10.438 73.7829 11.7211C75.1027 12.9636 77.1938 13.0205 78.4779 11.7411V11.7411C79.7029 10.5206 79.7303 8.53829 78.453 7.37267C76.7207 5.79185 74.7719 4.22635 72.6301 2.66425ZM71.1215 18.1735C69.9414 17.2103 68.2322 17.3018 67.1298 18.3531V18.3531C65.7689 19.6509 65.8828 21.8504 67.3189 23.0644C69.2891 24.7297 71.0078 26.3413 72.475 27.8835C73.7572 29.2313 75.9186 29.3581 77.2456 28.0543V28.0543C78.4488 26.8722 78.5118 24.947 77.3218 23.7515C75.4711 21.8923 73.3999 20.0329 71.1215 18.1735ZM77.0341 35.793C75.3544 35.1048 73.4447 35.9784 72.8324 37.6872C70.8957 43.0917 68.7065 48.3979 66.3108 53.6061C65.5027 55.3629 66.2808 57.4511 68.0556 58.219V58.219C69.7772 58.964 71.7794 58.1785 72.5069 56.4494C74.7445 51.1307 76.8664 45.5316 78.8207 39.6524C79.3377 38.0972 78.5505 36.4144 77.0341 35.793V35.793ZM88.3979 11.209C85.5219 11.209 83.1905 13.5404 83.1905 16.4164V19.3753C83.1905 23.8854 86.8466 27.5416 91.3568 27.5416H113.341C117.851 27.5416 121.507 23.8854 121.507 19.3753V16.4486C121.507 13.5549 119.161 11.209 116.267 11.209H112.629C111.745 11.209 111.028 10.4921 111.028 9.60778V9.60778C111.028 8.72345 111.745 8.00655 112.629 8.00655H120.553C122.11 8.00655 123.372 6.74472 123.372 5.18816V5.18816C123.372 3.6316 122.11 2.36976 120.553 2.36976H83.8874C82.3309 2.36976 81.069 3.6316 81.069 5.18816V5.18816C81.069 6.74472 82.3309 8.00655 83.8874 8.00655H92.0041C92.8884 8.00655 93.6053 8.72345 93.6053 9.60778V9.60778C93.6053 10.4921 92.8884 11.209 92.0041 11.209H88.3979ZM103.255 8.00655C104.14 8.00655 104.857 8.72345 104.857 9.60778V9.60778C104.857 10.4921 104.14 11.209 103.255 11.209H101.378C100.494 11.209 99.7772 10.4921 99.7772 9.60778V9.60778C99.7772 8.72345 100.494 8.00655 101.378 8.00655H103.255ZM115.207 19.7822C115.207 21.167 114.084 22.2897 112.7 22.2897V22.2897C111.315 22.2897 110.192 21.167 110.192 19.7822V18.9684C110.192 17.5835 111.315 16.4609 112.7 16.4609V16.4609C114.084 16.4609 115.207 17.5835 115.207 18.9684V19.7822ZM104.792 19.8144C104.792 21.1815 103.684 22.2897 102.317 22.2897V22.2897C100.95 22.2897 99.8416 21.1815 99.8416 19.8144V18.9362C99.8416 17.5691 100.95 16.4609 102.317 16.4609V16.4609C103.684 16.4609 104.792 17.5691 104.792 18.9362V19.8144ZM94.4419 19.8144C94.4419 21.1815 93.3336 22.2897 91.9665 22.2897V22.2897C90.5995 22.2897 89.4912 21.1815 89.4912 19.8144V18.9362C89.4912 17.5691 90.5995 16.4609 91.9665 16.4609V16.4609C93.3336 16.4609 94.4419 17.5691 94.4419 18.9362V19.8144ZM91.5002 47.5797C90.3048 46.5463 88.5145 46.6465 87.3452 47.7094C85.5316 49.358 83.495 50.8936 81.2458 52.3161C79.6102 53.3505 79.1428 55.5764 80.3402 57.0967V57.0967C81.3091 58.3268 83.0465 58.6567 84.3471 57.7848C87.0944 55.943 89.5453 53.9031 91.7319 51.6807C92.8755 50.5183 92.7338 48.6461 91.5002 47.5797V47.5797ZM114.651 47.0706C113.558 46.3146 112.086 46.4601 111.138 47.39V47.39C109.878 48.6255 110.053 50.6987 111.461 51.7618C113.809 53.5335 115.847 55.2601 117.557 56.9215C118.803 58.1333 120.815 58.2065 122.047 56.9792V56.9792C123.235 55.7953 123.229 53.8636 121.97 52.7542C119.822 50.8595 117.387 48.9649 114.651 47.0706ZM99.2627 59.6944C103.634 59.6944 105.82 57.5812 105.82 53.4815V53.4815C105.82 48.6354 109.749 44.7068 114.595 44.7068H121.39C122.981 44.7068 124.272 43.4165 124.272 41.8247V41.8247C124.272 40.233 122.981 38.9426 121.39 38.9426H83.6943C82.1026 38.9426 80.8122 40.233 80.8122 41.8247V41.8247C80.8122 43.4165 82.1026 44.7068 83.6943 44.7068H92.1535C96.0798 44.7068 99.2627 47.8898 99.2627 51.8161V51.8161C99.2627 53.0975 98.4915 53.7381 96.9489 53.7381C96.6677 53.7381 96.3845 53.7322 96.099 53.7212C94.0518 53.6418 92.3655 55.4375 92.8265 57.4337V57.4337C93.132 58.7571 94.3105 59.6944 95.6686 59.6944H99.2627ZM89.0307 30.4237C87.5096 30.4237 86.2764 31.6568 86.2764 33.1779V33.1779C86.2764 34.6991 87.5096 35.9322 89.0307 35.9322H116.053C117.574 35.9322 118.807 34.6991 118.807 33.1779V33.1779C118.807 31.6568 117.574 30.4237 116.053 30.4237H89.0307ZM135.705 4.22716C134.22 4.22716 133.015 5.43155 133.015 6.91725V6.91725C133.015 8.40295 134.22 9.60734 135.705 9.60734H154.107C154.849 9.60734 155.452 10.2095 155.452 10.9524V10.9524C155.452 11.6952 154.849 12.2974 154.107 12.2974H138.084C136.633 12.2974 135.458 13.4731 135.458 14.9234V14.9234C135.458 16.3736 136.633 17.5493 138.084 17.5493H154.042C154.821 17.5493 155.452 18.1802 155.452 18.9585V18.9585C155.452 19.7368 154.821 20.3677 154.042 20.3677H132.877C131.356 20.3677 130.122 21.6008 130.122 23.122V23.122C130.122 24.6431 131.356 25.8762 132.877 25.8762H184.843C186.364 25.8762 187.597 24.6431 187.597 23.122V23.122C187.597 21.6008 186.364 20.3677 184.843 20.3677H163.676C162.898 20.3677 162.267 19.7368 162.267 18.9585V18.9585C162.267 18.1802 162.898 17.5493 163.676 17.5493H179.764C181.214 17.5493 182.39 16.3736 182.39 14.9234V14.9234C182.39 13.4731 181.214 12.2974 179.764 12.2974H163.612C162.869 12.2974 162.267 11.6952 162.267 10.9524V10.9524C162.267 10.2095 162.869 9.60734 163.612 9.60734H182.142C183.628 9.60734 184.832 8.40295 184.832 6.91725V6.91725C184.832 5.43155 183.628 4.22716 182.142 4.22716H164.028C163.056 4.22716 162.267 3.43856 162.267 2.46577V2.46577C162.267 1.49298 161.478 0.704381 160.506 0.704381H157.213C156.24 0.704381 155.452 1.49298 155.452 2.46577V2.46577C155.452 3.43856 154.663 4.22716 153.69 4.22716H135.705ZM173.517 59.5661C178.21 59.5661 180.589 57.3883 180.589 53.0975V50.104C180.589 38.103 170.861 28.3743 158.86 28.3743H152.918C144.199 28.3743 137.13 35.443 137.13 44.1626V56.6726C137.13 58.4832 138.598 59.951 140.408 59.951V59.951C142.219 59.951 143.687 58.4832 143.687 56.6726V54.9549C143.687 52.1956 145.924 49.9587 148.683 49.9587H172.238C173.229 49.9587 174.032 50.7618 174.032 51.7524V51.7524C174.032 53.2258 173.196 53.9939 171.525 53.9939L168.782 53.8879C166.862 53.8138 165.424 55.6283 165.935 57.4809V57.4809C166.275 58.7127 167.395 59.5661 168.673 59.5661H173.517ZM145.224 44.9635C144.375 44.9635 143.687 44.2751 143.687 43.426V43.426C143.687 42.5768 144.375 41.8885 145.224 41.8885H172.494C173.344 41.8885 174.032 42.5768 174.032 43.426V43.426C174.032 44.2751 173.344 44.9635 172.494 44.9635H145.224ZM145.256 36.8932C144.389 36.8932 143.687 36.1906 143.687 35.3238V35.3238C143.687 34.4571 144.389 33.7545 145.256 33.7545H172.463C173.329 33.7545 174.032 34.4571 174.032 35.3238V35.3238C174.032 36.1906 173.329 36.8932 172.463 36.8932H145.256ZM204.583 18.1434C206.765 15.4555 209.9 13.5788 213.363 13.5788H219.339C221.62 13.5788 223.47 15.4283 223.47 17.7099V17.7099C223.47 19.9915 221.62 21.8411 219.339 21.8411H213.504C208.498 21.8411 204.441 25.8988 204.441 30.9042V35.0172C204.441 37.7511 202.224 39.9673 199.49 39.9673H197.807C196.003 39.9673 194.54 41.4298 194.54 43.2339V43.2339C194.54 45.038 196.003 46.5005 197.807 46.5005H216.649C220.416 46.5005 223.47 49.5545 223.47 53.3218V56.7676C223.47 58.6318 224.981 60.143 226.845 60.143V60.143C228.71 60.143 230.221 58.6318 230.221 56.7676V53.3218C230.221 49.5545 233.275 46.5005 237.042 46.5005H248.426C250.23 46.5005 251.693 45.038 251.693 43.2339V43.2339C251.693 41.4298 250.23 39.9673 248.426 39.9673H236.146C232.874 39.9673 230.221 37.3147 230.221 34.0425V34.0425C230.221 30.7703 232.874 28.1177 236.146 28.1177H244.376C246.109 28.1177 247.514 26.7126 247.514 24.9794V24.9794C247.514 23.2461 246.109 21.8411 244.376 21.8411H234.352C232.07 21.8411 230.221 19.9915 230.221 17.7099V17.7099C230.221 15.4283 232.07 13.5788 234.352 13.5788H246.53C248.316 13.5788 249.765 12.1305 249.765 10.344V10.344C249.765 8.55752 248.316 7.10928 246.53 7.10928H214.48C212.808 7.10928 211.631 5.49211 212.149 3.90327V3.90327C212.583 2.57713 211.742 1.12649 210.37 0.873317L209.149 0.647937C207.359 0.317639 205.632 1.42132 205.012 3.13255C203.064 8.51183 200.048 13.0544 195.989 16.7832C194.49 18.1604 194.168 20.4707 195.429 22.0685V22.0685C196.649 23.614 198.895 23.9107 200.357 22.5915C201.875 21.2218 203.285 19.7419 204.583 18.1434ZM217.115 39.9673C213.843 39.9673 211.191 37.3147 211.191 34.0425V34.0425C211.191 30.7703 213.843 28.1177 217.115 28.1177H217.545C220.817 28.1177 223.47 30.7703 223.47 34.0425V34.0425C223.47 37.3147 220.817 39.9673 217.545 39.9673H217.115Z" fill="currentColor"/>
</svg>
